<svg xmlns="http://www.w3.org/2000/svg" xmlns:xlink="http://www.w3.org/1999/xlink" width="2000" zoomAndPan="magnify" viewBox="0 0 1500 1499.999933" height="2000" preserveAspectRatio="xMidYMid meet" version="1.0"><defs><g/><clipPath id="9a032617e8"><path d="M 518.691406 683 L 958 683 L 958 759 L 518.691406 759 Z M 518.691406 683 " clip-rule="nonzero"/></clipPath><clipPath id="50a893239f"><path d="M 849 735 L 981.3125 735 L 981.3125 772 L 849 772 Z M 849 735 " clip-rule="nonzero"/></clipPath><clipPath id="d068d60364"><rect x="0" width="488" y="0" height="184"/></clipPath><clipPath id="f4b341f3c0"><rect x="0" width="350" y="0" height="183"/></clipPath></defs><g clip-path="url(#9a032617e8)"><path fill="#8e6b69" d="M 518.5625 736.882812 C 555.925781 726.898438 597.496094 730.273438 643.097656 746.34375 C 690.921875 763.210938 696.851562 763.738281 740.175781 740.488281 C 766.066406 726.585938 792.757812 715.714844 823.796875 721.34375 C 850.988281 726.273438 858.539062 738.296875 883.492188 716.128906 C 931.71875 673.308594 962.769531 706.457031 947.621094 756.441406 C 975.753906 714.589844 937.546875 646.445312 875.46875 708.964844 C 858.011719 726.542969 844.6875 715.417969 824.679688 710.488281 C 793.160156 702.738281 761.28125 711.925781 729.257812 727.355469 C 689.140625 746.683594 689.613281 747.695312 644.550781 734.464844 C 591.367188 718.863281 550.882812 721.898438 518.5625 736.882812 " fill-opacity="1" fill-rule="nonzero"/></g><g clip-path="url(#50a893239f)"><path fill="#8e6b69" d="M 849.292969 736.042969 C 899.085938 745.957031 940.027344 788.535156 981.3125 763.253906 C 934.753906 773.050781 898.570312 730.832031 849.292969 736.042969 " fill-opacity="1" fill-rule="nonzero"/></g><path fill="#8e6b69" d="M 724.527344 639.234375 C 740.160156 666.214844 757.730469 688.335938 777.054688 705.003906 C 747.710938 696.855469 732.066406 672.824219 724.527344 639.234375 " fill-opacity="1" fill-rule="nonzero"/><path fill="#8e6b69" d="M 657.503906 732.410156 C 683.96875 709.121094 680.207031 653.707031 680.777344 632.695312 C 681.203125 616.699219 683.8125 602.210938 698.746094 593.582031 C 724.382812 578.765625 725.394531 586.386719 732.75 554.363281 C 734.871094 545.105469 736.554688 535.246094 738.976562 526.386719 C 751.632812 480.105469 811.085938 505.277344 792.019531 553.125 C 782.214844 577.695312 756.40625 607.328125 737.351562 574.421875 C 744.578125 615.773438 788.269531 590.800781 800.980469 556.785156 C 821.289062 502.46875 748.011719 468.351562 731.835938 525.503906 C 729.371094 534.222656 727.503906 543.4375 725.183594 552.253906 C 719.367188 574.234375 718.796875 571.488281 699.914062 579.71875 C 674.578125 590.761719 671.042969 608.296875 670.1875 633.222656 C 669.40625 656.371094 671.828125 700.902344 657.503906 732.410156 " fill-opacity="1" fill-rule="nonzero"/><path fill="#8e6b69" d="M 851.472656 707.097656 C 832.988281 685.53125 801.765625 683.480469 785.917969 650.71875 C 772.011719 621.96875 772.90625 603.949219 734.1875 595.046875 C 763.417969 608.894531 765.882812 625.660156 774.890625 652.453125 C 784.082031 679.804688 833.546875 694.71875 851.472656 707.097656 " fill-opacity="1" fill-rule="nonzero"/><path fill="#8e6b69" d="M 741.570312 504.464844 C 732.007812 474.179688 769.402344 468.921875 765.738281 495.132812 C 758.785156 478.183594 741.242188 484.292969 741.570312 504.464844 " fill-opacity="1" fill-rule="nonzero"/><g transform="matrix(1, 0, 0, 1, 323, 786)"><g clip-path="url(#d068d60364)"><g fill="#000000" fill-opacity="1"><g transform="translate(0.82106, 132.398328)"><g><path d="M 8.796875 -31.25 C 9.398438 -31.84375 10.117188 -32.347656 10.953125 -32.765625 C 11.785156 -33.191406 12.625 -33.40625 13.46875 -33.40625 C 14.539062 -33.40625 15.195312 -32.863281 15.4375 -31.78125 C 15.800781 -30.101562 16.550781 -27.738281 17.6875 -24.6875 C 18.820312 -21.632812 20.523438 -18.550781 22.796875 -15.4375 C 25.078125 -12.332031 28.039062 -9.703125 31.6875 -7.546875 C 35.34375 -5.390625 39.863281 -4.3125 45.25 -4.3125 C 51.113281 -4.3125 56.171875 -6.222656 60.421875 -10.046875 C 64.671875 -13.878906 66.796875 -19.269531 66.796875 -26.21875 C 66.796875 -30.40625 66.015625 -33.816406 64.453125 -36.453125 C 62.898438 -39.085938 60.390625 -41.570312 56.921875 -43.90625 C 53.453125 -46.238281 48.785156 -48.960938 42.921875 -52.078125 C 38.367188 -54.585938 33.664062 -57.488281 28.8125 -60.78125 C 23.96875 -64.070312 19.898438 -67.929688 16.609375 -72.359375 C 13.316406 -76.785156 11.671875 -81.992188 11.671875 -87.984375 C 11.671875 -94.328125 13.347656 -99.863281 16.703125 -104.59375 C 20.054688 -109.320312 24.425781 -113.003906 29.8125 -115.640625 C 35.195312 -118.273438 40.878906 -119.59375 46.859375 -119.59375 C 50.578125 -119.59375 53.722656 -119.351562 56.296875 -118.875 C 58.867188 -118.394531 61.46875 -117.796875 64.09375 -117.078125 C 66.726562 -116.359375 70.023438 -115.519531 73.984375 -114.5625 C 74.703125 -109.894531 75.269531 -105.078125 75.6875 -100.109375 C 76.101562 -95.140625 76.375 -91.457031 76.5 -89.0625 C 76.613281 -88.46875 76.160156 -87.988281 75.140625 -87.625 C 74.128906 -87.269531 73.320312 -87.09375 72.71875 -87.09375 C 71.882812 -87.09375 71.226562 -87.332031 70.75 -87.8125 C 70.507812 -90.082031 69.757812 -92.65625 68.5 -95.53125 C 67.25 -98.40625 65.570312 -101.21875 63.46875 -103.96875 C 61.375 -106.71875 58.832031 -108.988281 55.84375 -110.78125 C 52.851562 -112.582031 49.441406 -113.484375 45.609375 -113.484375 C 40.703125 -113.484375 36.8125 -112.4375 33.9375 -110.34375 C 31.0625 -108.25 29.023438 -105.644531 27.828125 -102.53125 C 26.628906 -99.414062 26.03125 -96.421875 26.03125 -93.546875 C 26.03125 -89.242188 27.109375 -85.566406 29.265625 -82.515625 C 31.421875 -79.460938 34.296875 -76.675781 37.890625 -74.15625 C 41.484375 -71.644531 45.429688 -69.132812 49.734375 -66.625 C 54.765625 -63.75 59.789062 -60.601562 64.8125 -57.1875 C 69.84375 -53.78125 74.035156 -49.953125 77.390625 -45.703125 C 80.742188 -41.453125 82.421875 -36.570312 82.421875 -31.0625 C 82.421875 -24.476562 80.625 -18.734375 77.03125 -13.828125 C 73.4375 -8.921875 68.796875 -5.085938 63.109375 -2.328125 C 57.429688 0.421875 51.359375 1.796875 44.890625 1.796875 C 38.785156 1.796875 32.976562 1.140625 27.46875 -0.171875 C 21.96875 -1.492188 17 -2.570312 12.5625 -3.40625 C 11.84375 -7 11.210938 -10.800781 10.671875 -14.8125 C 10.140625 -18.820312 9.691406 -22.382812 9.328125 -25.5 C 8.972656 -28.613281 8.796875 -30.53125 8.796875 -31.25 Z M 8.796875 -31.25 "/></g></g></g><g fill="#000000" fill-opacity="1"><g transform="translate(90.957696, 132.398328)"><g><path d="M 7.1875 -35.90625 C 7.1875 -41.894531 8.257812 -47.492188 10.40625 -52.703125 C 12.5625 -57.910156 15.40625 -62.457031 18.9375 -66.34375 C 22.46875 -70.238281 26.296875 -73.257812 30.421875 -75.40625 C 34.554688 -77.5625 38.601562 -78.640625 42.5625 -78.640625 C 47.945312 -78.640625 52.375 -77.742188 55.84375 -75.953125 C 59.3125 -74.160156 62.0625 -71.882812 64.09375 -69.125 C 66.132812 -66.375 67.539062 -63.648438 68.3125 -60.953125 C 69.09375 -58.265625 69.484375 -56.023438 69.484375 -54.234375 C 69.484375 -51.597656 69.179688 -49.5625 68.578125 -48.125 C 67.984375 -46.6875 66.851562 -45.90625 65.1875 -45.78125 C 64.101562 -45.664062 61.945312 -45.578125 58.71875 -45.515625 C 55.488281 -45.453125 51.773438 -45.359375 47.578125 -45.234375 C 43.390625 -45.117188 39.257812 -45.003906 35.1875 -44.890625 C 31.125 -44.773438 27.6875 -44.6875 24.875 -44.625 C 22.0625 -44.5625 20.414062 -44.53125 19.9375 -44.53125 L 19.9375 -43.28125 C 19.9375 -35.976562 21.3125 -29.84375 24.0625 -24.875 C 26.8125 -19.90625 30.398438 -16.191406 34.828125 -13.734375 C 39.265625 -11.285156 44.054688 -10.0625 49.203125 -10.0625 C 52.554688 -10.0625 55.578125 -10.65625 58.265625 -11.84375 C 60.960938 -13.039062 63.238281 -14.414062 65.09375 -15.96875 C 66.945312 -17.53125 68.234375 -18.734375 68.953125 -19.578125 C 69.066406 -19.578125 69.332031 -19.335938 69.75 -18.859375 C 70.175781 -18.378906 70.390625 -17.78125 70.390625 -17.0625 C 70.390625 -16.101562 70.03125 -15.023438 69.3125 -13.828125 C 68.226562 -12.035156 66.519531 -9.941406 64.1875 -7.546875 C 61.851562 -5.148438 58.921875 -3.050781 55.390625 -1.25 C 51.859375 0.539062 47.757812 1.4375 43.09375 1.4375 C 36.03125 1.4375 29.804688 -0.207031 24.421875 -3.5 C 19.035156 -6.789062 14.816406 -11.25 11.765625 -16.875 C 8.710938 -22.5 7.1875 -28.84375 7.1875 -35.90625 Z M 20.828125 -51.171875 L 50.09375 -51.171875 C 51.175781 -51.171875 52.132812 -51.46875 52.96875 -52.0625 C 53.8125 -52.664062 54.234375 -53.75 54.234375 -55.3125 C 54.234375 -57.101562 53.753906 -59.316406 52.796875 -61.953125 C 51.835938 -64.585938 50.304688 -66.953125 48.203125 -69.046875 C 46.109375 -71.140625 43.207031 -72.1875 39.5 -72.1875 C 35.789062 -72.1875 32.675781 -71.140625 30.15625 -69.046875 C 27.644531 -66.953125 25.703125 -64.492188 24.328125 -61.671875 C 22.953125 -58.859375 21.992188 -56.40625 21.453125 -54.3125 C 20.921875 -52.21875 20.710938 -51.171875 20.828125 -51.171875 Z M 20.828125 -51.171875 "/></g></g></g><g fill="#000000" fill-opacity="1"><g transform="translate(168.166372, 132.398328)"><g><path d="M 6.109375 -66.796875 C 5.984375 -67.035156 5.859375 -67.753906 5.734375 -68.953125 C 5.617188 -70.148438 5.742188 -70.988281 6.109375 -71.46875 C 10.648438 -72.0625 15.164062 -72.988281 19.65625 -74.25 C 24.144531 -75.507812 28.1875 -77.09375 31.78125 -79 C 32.257812 -79 32.707031 -78.640625 33.125 -77.921875 C 33.539062 -77.210938 33.75 -76.617188 33.75 -76.140625 C 33.75 -75.773438 33.660156 -74.84375 33.484375 -73.34375 C 33.304688 -71.851562 33.15625 -70.117188 33.03125 -68.140625 C 32.914062 -66.171875 32.796875 -64.375 32.671875 -62.75 C 32.554688 -61.132812 32.5 -60.085938 32.5 -59.609375 C 32.5 -59.253906 32.585938 -59.078125 32.765625 -59.078125 C 32.953125 -59.078125 33.101562 -59.132812 33.21875 -59.25 C 34.414062 -61.882812 36.179688 -64.664062 38.515625 -67.59375 C 40.847656 -70.53125 43.421875 -73.078125 46.234375 -75.234375 C 49.046875 -77.390625 51.769531 -78.46875 54.40625 -78.46875 C 56.800781 -78.46875 59.015625 -77.957031 61.046875 -76.9375 C 63.085938 -75.925781 64.523438 -74.703125 65.359375 -73.265625 C 65.597656 -72.785156 65.773438 -72.09375 65.890625 -71.1875 C 66.015625 -70.289062 66.078125 -69.363281 66.078125 -68.40625 C 66.078125 -65.0625 65.328125 -62.671875 63.828125 -61.234375 C 62.335938 -59.796875 61.113281 -59.078125 60.15625 -59.078125 C 59.195312 -59.078125 58.296875 -59.316406 57.453125 -59.796875 C 56.617188 -60.273438 55.722656 -60.875 54.765625 -61.59375 C 53.691406 -62.425781 52.554688 -63.140625 51.359375 -63.734375 C 50.160156 -64.335938 48.660156 -64.640625 46.859375 -64.640625 C 44.347656 -64.640625 41.984375 -63.59375 39.765625 -61.5 C 37.554688 -59.40625 35.789062 -57.070312 34.46875 -54.5 C 33.15625 -51.925781 32.5 -49.921875 32.5 -48.484375 L 32.5 -20.828125 C 32.5 -18.191406 32.53125 -15.675781 32.59375 -13.28125 C 32.65625 -10.894531 32.925781 -8.984375 33.40625 -7.546875 C 33.632812 -6.941406 34.859375 -6.398438 37.078125 -5.921875 C 39.296875 -5.441406 41.628906 -5.113281 44.078125 -4.9375 C 46.535156 -4.757812 48.125 -4.671875 48.84375 -4.671875 C 49.195312 -4.191406 49.40625 -3.320312 49.46875 -2.0625 C 49.53125 -0.800781 49.320312 0.0625 48.84375 0.53125 C 45.132812 0.289062 41.363281 0.0820312 37.53125 -0.09375 C 33.695312 -0.269531 30.046875 -0.359375 26.578125 -0.359375 C 23.109375 -0.359375 19.816406 -0.269531 16.703125 -0.09375 C 13.585938 0.0820312 10.175781 0.289062 6.46875 0.53125 C 5.988281 0.0625 5.773438 -0.800781 5.828125 -2.0625 C 5.890625 -3.320312 6.101562 -4.191406 6.46875 -4.671875 C 7.1875 -4.671875 8.410156 -4.757812 10.140625 -4.9375 C 11.878906 -5.113281 13.554688 -5.441406 15.171875 -5.921875 C 16.785156 -6.398438 17.65625 -6.941406 17.78125 -7.546875 C 18.257812 -8.984375 18.523438 -10.894531 18.578125 -13.28125 C 18.640625 -15.675781 18.671875 -18.191406 18.671875 -20.828125 L 18.671875 -54.234375 C 18.671875 -55.429688 18.640625 -57.015625 18.578125 -58.984375 C 18.523438 -60.960938 18.257812 -62.488281 17.78125 -63.5625 C 17.414062 -64.644531 16.363281 -65.394531 14.625 -65.8125 C 12.894531 -66.226562 11.160156 -66.492188 9.421875 -66.609375 C 7.691406 -66.734375 6.585938 -66.796875 6.109375 -66.796875 Z M 6.109375 -66.796875 "/></g></g></g><g fill="#000000" fill-opacity="1"><g transform="translate(236.935963, 132.398328)"><g><path d="M 7.1875 -35.90625 C 7.1875 -41.894531 8.257812 -47.492188 10.40625 -52.703125 C 12.5625 -57.910156 15.40625 -62.457031 18.9375 -66.34375 C 22.46875 -70.238281 26.296875 -73.257812 30.421875 -75.40625 C 34.554688 -77.5625 38.601562 -78.640625 42.5625 -78.640625 C 47.945312 -78.640625 52.375 -77.742188 55.84375 -75.953125 C 59.3125 -74.160156 62.0625 -71.882812 64.09375 -69.125 C 66.132812 -66.375 67.539062 -63.648438 68.3125 -60.953125 C 69.09375 -58.265625 69.484375 -56.023438 69.484375 -54.234375 C 69.484375 -51.597656 69.179688 -49.5625 68.578125 -48.125 C 67.984375 -46.6875 66.851562 -45.90625 65.1875 -45.78125 C 64.101562 -45.664062 61.945312 -45.578125 58.71875 -45.515625 C 55.488281 -45.453125 51.773438 -45.359375 47.578125 -45.234375 C 43.390625 -45.117188 39.257812 -45.003906 35.1875 -44.890625 C 31.125 -44.773438 27.6875 -44.6875 24.875 -44.625 C 22.0625 -44.5625 20.414062 -44.53125 19.9375 -44.53125 L 19.9375 -43.28125 C 19.9375 -35.976562 21.3125 -29.84375 24.0625 -24.875 C 26.8125 -19.90625 30.398438 -16.191406 34.828125 -13.734375 C 39.265625 -11.285156 44.054688 -10.0625 49.203125 -10.0625 C 52.554688 -10.0625 55.578125 -10.65625 58.265625 -11.84375 C 60.960938 -13.039062 63.238281 -14.414062 65.09375 -15.96875 C 66.945312 -17.53125 68.234375 -18.734375 68.953125 -19.578125 C 69.066406 -19.578125 69.332031 -19.335938 69.75 -18.859375 C 70.175781 -18.378906 70.390625 -17.78125 70.390625 -17.0625 C 70.390625 -16.101562 70.03125 -15.023438 69.3125 -13.828125 C 68.226562 -12.035156 66.519531 -9.941406 64.1875 -7.546875 C 61.851562 -5.148438 58.921875 -3.050781 55.390625 -1.25 C 51.859375 0.539062 47.757812 1.4375 43.09375 1.4375 C 36.03125 1.4375 29.804688 -0.207031 24.421875 -3.5 C 19.035156 -6.789062 14.816406 -11.25 11.765625 -16.875 C 8.710938 -22.5 7.1875 -28.84375 7.1875 -35.90625 Z M 20.828125 -51.171875 L 50.09375 -51.171875 C 51.175781 -51.171875 52.132812 -51.46875 52.96875 -52.0625 C 53.8125 -52.664062 54.234375 -53.75 54.234375 -55.3125 C 54.234375 -57.101562 53.753906 -59.316406 52.796875 -61.953125 C 51.835938 -64.585938 50.304688 -66.953125 48.203125 -69.046875 C 46.109375 -71.140625 43.207031 -72.1875 39.5 -72.1875 C 35.789062 -72.1875 32.675781 -71.140625 30.15625 -69.046875 C 27.644531 -66.953125 25.703125 -64.492188 24.328125 -61.671875 C 22.953125 -58.859375 21.992188 -56.40625 21.453125 -54.3125 C 20.921875 -52.21875 20.710938 -51.171875 20.828125 -51.171875 Z M 20.828125 -51.171875 "/></g></g></g><g fill="#000000" fill-opacity="1"><g transform="translate(314.144624, 132.398328)"><g><path d="M 6.109375 -66.796875 C 5.984375 -67.035156 5.859375 -67.753906 5.734375 -68.953125 C 5.617188 -70.148438 5.742188 -70.988281 6.109375 -71.46875 C 10.648438 -72.0625 15.164062 -72.988281 19.65625 -74.25 C 24.144531 -75.507812 28.1875 -77.09375 31.78125 -79 C 32.257812 -79 32.707031 -78.640625 33.125 -77.921875 C 33.539062 -77.210938 33.75 -76.617188 33.75 -76.140625 C 33.75 -75.773438 33.660156 -74.84375 33.484375 -73.34375 C 33.304688 -71.851562 33.128906 -70.359375 32.953125 -68.859375 C 32.773438 -67.367188 32.6875 -66.382812 32.6875 -65.90625 C 32.6875 -65.425781 32.804688 -65.1875 33.046875 -65.1875 C 33.160156 -65.1875 33.335938 -65.304688 33.578125 -65.546875 C 34.773438 -66.859375 36.75 -68.5625 39.5 -70.65625 C 42.257812 -72.75 45.285156 -74.601562 48.578125 -76.21875 C 51.867188 -77.832031 54.945312 -78.640625 57.8125 -78.640625 C 64.28125 -78.640625 69.191406 -77.265625 72.546875 -74.515625 C 75.898438 -71.765625 78.144531 -67.601562 79.28125 -62.03125 C 80.414062 -56.46875 80.984375 -49.316406 80.984375 -40.578125 L 80.984375 -20.828125 C 80.984375 -18.191406 81.007812 -15.675781 81.0625 -13.28125 C 81.125 -10.894531 81.394531 -8.984375 81.875 -7.546875 C 82.113281 -6.941406 83.007812 -6.398438 84.5625 -5.921875 C 86.125 -5.441406 87.769531 -5.113281 89.5 -4.9375 C 91.238281 -4.757812 92.46875 -4.671875 93.1875 -4.671875 C 93.550781 -4.191406 93.757812 -3.320312 93.8125 -2.0625 C 93.875 -0.800781 93.664062 0.0625 93.1875 0.53125 C 89.476562 0.289062 86.21875 0.0820312 83.40625 -0.09375 C 80.59375 -0.269531 77.453125 -0.359375 73.984375 -0.359375 C 70.503906 -0.359375 67.390625 -0.269531 64.640625 -0.09375 C 61.890625 0.0820312 58.660156 0.289062 54.953125 0.53125 C 54.472656 0.0625 54.257812 -0.800781 54.3125 -2.0625 C 54.375 -3.320312 54.585938 -4.191406 54.953125 -4.671875 C 55.671875 -4.671875 56.894531 -4.757812 58.625 -4.9375 C 60.363281 -5.113281 62.039062 -5.441406 63.65625 -5.921875 C 65.269531 -6.398438 66.140625 -6.941406 66.265625 -7.546875 C 66.742188 -8.984375 67.007812 -10.894531 67.0625 -13.28125 C 67.125 -15.675781 67.15625 -18.191406 67.15625 -20.828125 L 67.15625 -38.78125 C 67.15625 -46.207031 66.675781 -52.070312 65.71875 -56.375 C 64.757812 -60.6875 62.992188 -63.738281 60.421875 -65.53125 C 57.847656 -67.332031 54.226562 -68.234375 49.5625 -68.234375 C 47.40625 -68.234375 44.976562 -67.515625 42.28125 -66.078125 C 39.59375 -64.640625 37.289062 -63.140625 35.375 -61.578125 C 33.457031 -60.023438 32.5 -58.953125 32.5 -58.359375 L 32.5 -20.828125 C 32.5 -18.191406 32.53125 -15.675781 32.59375 -13.28125 C 32.65625 -10.894531 32.925781 -8.984375 33.40625 -7.546875 C 33.632812 -6.941406 34.523438 -6.398438 36.078125 -5.921875 C 37.640625 -5.441406 39.289062 -5.113281 41.03125 -4.9375 C 42.769531 -4.757812 44 -4.671875 44.71875 -4.671875 C 45.070312 -4.191406 45.273438 -3.320312 45.328125 -2.0625 C 45.390625 -0.800781 45.1875 0.0625 44.71875 0.53125 C 41 0.289062 37.734375 0.0820312 34.921875 -0.09375 C 32.109375 -0.269531 28.96875 -0.359375 25.5 -0.359375 C 22.03125 -0.359375 18.914062 -0.269531 16.15625 -0.09375 C 13.40625 0.0820312 10.175781 0.289062 6.46875 0.53125 C 5.988281 0.0625 5.773438 -0.800781 5.828125 -2.0625 C 5.890625 -3.320312 6.101562 -4.191406 6.46875 -4.671875 C 7.1875 -4.671875 8.410156 -4.757812 10.140625 -4.9375 C 11.878906 -5.113281 13.554688 -5.441406 15.171875 -5.921875 C 16.785156 -6.398438 17.65625 -6.941406 17.78125 -7.546875 C 18.257812 -8.984375 18.523438 -10.894531 18.578125 -13.28125 C 18.640625 -15.675781 18.671875 -18.191406 18.671875 -20.828125 L 18.671875 -53.515625 C 18.671875 -54.710938 18.640625 -56.414062 18.578125 -58.625 C 18.523438 -60.84375 18.257812 -62.488281 17.78125 -63.5625 C 17.414062 -64.644531 16.363281 -65.394531 14.625 -65.8125 C 12.894531 -66.226562 11.160156 -66.492188 9.421875 -66.609375 C 7.691406 -66.734375 6.585938 -66.796875 6.109375 -66.796875 Z M 6.109375 -66.796875 "/></g></g></g><g fill="#000000" fill-opacity="1"><g transform="translate(409.667931, 132.398328)"><g><path d="M 6.640625 -19.21875 C 6.640625 -22.925781 7.65625 -26.066406 9.6875 -28.640625 C 11.726562 -31.210938 13.707031 -32.859375 15.625 -33.578125 C 18.976562 -34.773438 22.78125 -36.09375 27.03125 -37.53125 C 31.28125 -38.96875 35.257812 -40.375 38.96875 -41.75 C 42.675781 -43.125 45.367188 -44.171875 47.046875 -44.890625 C 48.003906 -45.242188 48.601562 -45.691406 48.84375 -46.234375 C 49.082031 -46.773438 49.203125 -47.820312 49.203125 -49.375 L 49.203125 -54.234375 C 49.203125 -56.984375 48.507812 -59.675781 47.125 -62.3125 C 45.75 -64.945312 43.925781 -67.128906 41.65625 -68.859375 C 39.382812 -70.597656 36.75 -71.46875 33.75 -71.46875 C 30.644531 -71.46875 28.375 -70.476562 26.9375 -68.5 C 25.5 -66.53125 24.476562 -63.804688 23.875 -60.328125 C 22.925781 -54.585938 20.113281 -51.71875 15.4375 -51.71875 C 13.519531 -51.71875 12.023438 -52.523438 10.953125 -54.140625 C 9.878906 -55.753906 9.34375 -57.457031 9.34375 -59.25 C 9.34375 -59.613281 9.460938 -60.300781 9.703125 -61.3125 C 9.941406 -62.332031 10.238281 -63.082031 10.59375 -63.5625 C 12.507812 -65.363281 15.203125 -67.398438 18.671875 -69.671875 C 22.140625 -71.941406 26.03125 -73.945312 30.34375 -75.6875 C 34.65625 -77.425781 38.96875 -78.296875 43.28125 -78.296875 C 46.75 -78.296875 49.945312 -77.21875 52.875 -75.0625 C 55.8125 -72.90625 58.207031 -69.96875 60.0625 -66.25 C 61.914062 -62.539062 62.84375 -58.351562 62.84375 -53.6875 L 62.84375 -16.703125 C 62.84375 -14.304688 63.257812 -12.300781 64.09375 -10.6875 C 64.9375 -9.070312 66.375 -8.265625 68.40625 -8.265625 C 70.082031 -8.265625 71.429688 -8.625 72.453125 -9.34375 C 73.472656 -10.0625 74.101562 -10.476562 74.34375 -10.59375 C 74.582031 -10.59375 74.757812 -10.410156 74.875 -10.046875 C 75 -9.691406 75.0625 -9.394531 75.0625 -9.15625 C 75.0625 -7.84375 74.757812 -6.707031 74.15625 -5.75 C 73.4375 -5.144531 72.238281 -4.273438 70.5625 -3.140625 C 68.882812 -2.003906 67.148438 -1.015625 65.359375 -0.171875 C 63.566406 0.660156 62.007812 1.078125 60.6875 1.078125 C 58.050781 1.078125 55.71875 -0.175781 53.6875 -2.6875 C 51.65625 -5.207031 50.335938 -7.84375 49.734375 -10.59375 C 49.253906 -10.113281 48.117188 -9.210938 46.328125 -7.890625 C 44.535156 -6.578125 42.5 -5.203125 40.21875 -3.765625 C 37.945312 -2.328125 35.671875 -1.097656 33.390625 -0.078125 C 31.117188 0.929688 29.207031 1.4375 27.65625 1.4375 C 21.789062 1.4375 16.820312 -0.535156 12.75 -4.484375 C 8.675781 -8.441406 6.640625 -13.351562 6.640625 -19.21875 Z M 21.546875 -20.828125 C 21.546875 -17.472656 22.710938 -14.539062 25.046875 -12.03125 C 27.378906 -9.519531 30.222656 -8.265625 33.578125 -8.265625 C 35.734375 -8.265625 38.007812 -8.742188 40.40625 -9.703125 C 42.800781 -10.660156 44.863281 -11.734375 46.59375 -12.921875 C 48.332031 -14.117188 49.203125 -15.019531 49.203125 -15.625 L 49.203125 -40.046875 C 46.804688 -39.328125 43.84375 -38.425781 40.3125 -37.34375 C 36.78125 -36.269531 34.175781 -35.429688 32.5 -34.828125 C 29.269531 -33.640625 26.632812 -31.875 24.59375 -29.53125 C 22.5625 -27.195312 21.546875 -24.296875 21.546875 -20.828125 Z M 21.546875 -20.828125 "/></g></g></g></g></g><g transform="matrix(1, 0, 0, 1, 834, 787)"><g clip-path="url(#f4b341f3c0)"><g fill="#8e6b69" fill-opacity="1"><g transform="translate(0.334942, 131.679752)"><g><path d="M 8.046875 0.53125 C 7.566406 0.0625 7.359375 -0.796875 7.421875 -2.046875 C 7.484375 -3.304688 7.691406 -4.175781 8.046875 -4.65625 C 8.765625 -4.65625 10.078125 -4.742188 11.984375 -4.921875 C 13.890625 -5.097656 15.734375 -5.425781 17.515625 -5.90625 C 19.304688 -6.382812 20.265625 -6.921875 20.390625 -7.515625 C 20.867188 -8.941406 21.132812 -10.847656 21.1875 -13.234375 C 21.25 -15.617188 21.28125 -18.125 21.28125 -20.75 L 21.28125 -97.109375 C 21.28125 -99.847656 21.25 -102.378906 21.1875 -104.703125 C 21.132812 -107.035156 20.867188 -108.914062 20.390625 -110.34375 C 20.265625 -111.0625 19.304688 -111.628906 17.515625 -112.046875 C 15.734375 -112.460938 13.890625 -112.757812 11.984375 -112.9375 C 10.078125 -113.113281 8.765625 -113.203125 8.046875 -113.203125 C 7.691406 -113.679688 7.484375 -114.546875 7.421875 -115.796875 C 7.359375 -117.046875 7.566406 -117.910156 8.046875 -118.390625 C 11.742188 -118.273438 15.320312 -118.097656 18.78125 -117.859375 C 22.238281 -117.617188 25.695312 -117.5 29.15625 -117.5 C 32.613281 -117.5 36.394531 -117.554688 40.5 -117.671875 C 44.613281 -117.796875 49.296875 -117.859375 54.546875 -117.859375 C 58.597656 -117.859375 62.738281 -117.203125 66.96875 -115.890625 C 71.207031 -114.578125 75.144531 -112.609375 78.78125 -109.984375 C 82.414062 -107.359375 85.335938 -104.140625 87.546875 -100.328125 C 89.753906 -96.515625 90.859375 -92.046875 90.859375 -86.921875 C 90.859375 -82.628906 89.664062 -78.484375 87.28125 -74.484375 C 84.894531 -70.492188 81.851562 -67.007812 78.15625 -64.03125 C 74.457031 -61.050781 70.582031 -58.84375 66.53125 -57.40625 C 69.75 -52.164062 72.785156 -47.335938 75.640625 -42.921875 C 78.503906 -38.515625 81.515625 -34.132812 84.671875 -29.78125 C 87.835938 -25.425781 91.390625 -20.625 95.328125 -15.375 C 97.953125 -12.039062 100.753906 -9.507812 103.734375 -7.78125 C 106.710938 -6.050781 110.644531 -5.007812 115.53125 -4.65625 C 116.007812 -4.175781 116.128906 -3.25 115.890625 -1.875 C 115.648438 -0.507812 115.472656 0.289062 115.359375 0.53125 C 109.390625 0.53125 104.40625 0.320312 100.40625 -0.09375 C 96.414062 -0.507812 93.53125 -1.015625 91.75 -1.609375 C 90.550781 -2.085938 88.847656 -2.832031 86.640625 -3.84375 C 84.441406 -4.851562 82.269531 -6.734375 80.125 -9.484375 C 79.40625 -10.429688 78.0625 -12.304688 76.09375 -15.109375 C 74.125 -17.910156 71.796875 -21.335938 69.109375 -25.390625 C 66.429688 -29.441406 63.570312 -33.765625 60.53125 -38.359375 C 57.5 -42.953125 54.550781 -47.453125 51.6875 -51.859375 C 50.726562 -53.296875 48.941406 -54.015625 46.328125 -54.015625 L 36.84375 -54.015625 L 36.84375 -20.75 C 36.84375 -18.125 36.867188 -15.617188 36.921875 -13.234375 C 36.984375 -10.847656 37.253906 -8.941406 37.734375 -7.515625 C 37.972656 -6.921875 38.957031 -6.382812 40.6875 -5.90625 C 42.414062 -5.425781 44.234375 -5.097656 46.140625 -4.921875 C 48.046875 -4.742188 49.359375 -4.65625 50.078125 -4.65625 C 50.429688 -4.175781 50.640625 -3.304688 50.703125 -2.046875 C 50.765625 -0.796875 50.554688 0.0625 50.078125 0.53125 C 46.378906 0.289062 42.832031 0.0820312 39.4375 -0.09375 C 36.039062 -0.269531 32.613281 -0.359375 29.15625 -0.359375 C 25.695312 -0.359375 22.238281 -0.269531 18.78125 -0.09375 C 15.320312 0.0820312 11.742188 0.289062 8.046875 0.53125 Z M 36.84375 -59.5625 L 46.5 -59.5625 C 51.144531 -59.5625 55.582031 -60.601562 59.8125 -62.6875 C 64.050781 -64.769531 67.507812 -67.75 70.1875 -71.625 C 72.875 -75.5 74.21875 -80.0625 74.21875 -85.3125 C 74.21875 -93.0625 72.097656 -99.46875 67.859375 -104.53125 C 63.628906 -109.601562 56.566406 -112.140625 46.671875 -112.140625 C 45.597656 -112.140625 43.925781 -112.046875 41.65625 -111.859375 C 39.394531 -111.679688 38.085938 -111.175781 37.734375 -110.34375 C 37.253906 -109.269531 36.984375 -107.453125 36.921875 -104.890625 C 36.867188 -102.328125 36.84375 -99.675781 36.84375 -96.9375 Z M 36.84375 -59.5625 "/></g></g></g><g fill="#8e6b69" fill-opacity="1"><g transform="translate(111.393704, 131.679752)"><g><path d="M 6.625 -19.140625 C 6.625 -22.835938 7.632812 -25.96875 9.65625 -28.53125 C 11.6875 -31.09375 13.65625 -32.726562 15.5625 -33.4375 C 18.894531 -34.632812 22.675781 -35.945312 26.90625 -37.375 C 31.144531 -38.8125 35.113281 -40.210938 38.8125 -41.578125 C 42.507812 -42.953125 45.191406 -43.992188 46.859375 -44.703125 C 47.804688 -45.066406 48.398438 -45.515625 48.640625 -46.046875 C 48.878906 -46.585938 49 -47.632812 49 -49.1875 L 49 -54.015625 C 49 -56.753906 48.3125 -59.4375 46.9375 -62.0625 C 45.570312 -64.6875 43.753906 -66.863281 41.484375 -68.59375 C 39.222656 -70.320312 36.601562 -71.1875 33.625 -71.1875 C 30.519531 -71.1875 28.253906 -70.203125 26.828125 -68.234375 C 25.398438 -66.265625 24.382812 -63.550781 23.78125 -60.09375 C 22.832031 -54.363281 20.03125 -51.5 15.375 -51.5 C 13.46875 -51.5 11.976562 -52.300781 10.90625 -53.90625 C 9.832031 -55.519531 9.296875 -57.222656 9.296875 -59.015625 C 9.296875 -59.378906 9.414062 -60.066406 9.65625 -61.078125 C 9.894531 -62.085938 10.191406 -62.832031 10.546875 -63.3125 C 12.453125 -65.101562 15.132812 -67.128906 18.59375 -69.390625 C 22.050781 -71.660156 25.925781 -73.65625 30.21875 -75.375 C 34.507812 -77.101562 38.800781 -77.96875 43.09375 -77.96875 C 46.550781 -77.96875 49.738281 -76.894531 52.65625 -74.75 C 55.582031 -72.601562 57.96875 -69.679688 59.8125 -65.984375 C 61.664062 -62.296875 62.59375 -58.125 62.59375 -53.46875 L 62.59375 -16.625 C 62.59375 -14.25 63.007812 -12.253906 63.84375 -10.640625 C 64.675781 -9.035156 66.109375 -8.234375 68.140625 -8.234375 C 69.804688 -8.234375 71.144531 -8.585938 72.15625 -9.296875 C 73.175781 -10.015625 73.804688 -10.429688 74.046875 -10.546875 C 74.285156 -10.546875 74.460938 -10.367188 74.578125 -10.015625 C 74.691406 -9.660156 74.75 -9.363281 74.75 -9.125 C 74.75 -7.8125 74.453125 -6.675781 73.859375 -5.71875 C 73.148438 -5.125 71.957031 -4.257812 70.28125 -3.125 C 68.613281 -2 66.882812 -1.015625 65.09375 -0.171875 C 63.3125 0.660156 61.765625 1.078125 60.453125 1.078125 C 57.828125 1.078125 55.5 -0.171875 53.46875 -2.671875 C 51.445312 -5.179688 50.140625 -7.804688 49.546875 -10.546875 C 49.066406 -10.078125 47.929688 -9.1875 46.140625 -7.875 C 44.347656 -6.5625 42.316406 -5.1875 40.046875 -3.75 C 37.785156 -2.320312 35.519531 -1.097656 33.25 -0.078125 C 30.988281 0.929688 29.085938 1.4375 27.546875 1.4375 C 21.703125 1.4375 16.753906 -0.53125 12.703125 -4.46875 C 8.648438 -8.40625 6.625 -13.296875 6.625 -19.140625 Z M 21.46875 -20.75 C 21.46875 -17.40625 22.628906 -14.484375 24.953125 -11.984375 C 27.273438 -9.484375 30.101562 -8.234375 33.4375 -8.234375 C 35.582031 -8.234375 37.847656 -8.707031 40.234375 -9.65625 C 42.617188 -10.613281 44.675781 -11.6875 46.40625 -12.875 C 48.132812 -14.070312 49 -14.96875 49 -15.5625 L 49 -39.875 C 46.613281 -39.164062 43.660156 -38.273438 40.140625 -37.203125 C 36.628906 -36.128906 34.039062 -35.296875 32.375 -34.703125 C 29.15625 -33.503906 26.53125 -31.742188 24.5 -29.421875 C 22.476562 -27.097656 21.46875 -24.207031 21.46875 -20.75 Z M 21.46875 -20.75 "/></g></g></g><g fill="#8e6b69" fill-opacity="1"><g transform="translate(188.473143, 131.679752)"><g><path d="M 4.109375 18.78125 C 4.109375 16.15625 5.269531 13.617188 7.59375 11.171875 C 9.925781 8.734375 12.582031 6.53125 15.5625 4.5625 C 18.539062 2.59375 21.046875 1.128906 23.078125 0.171875 C 21.046875 -0.535156 18.867188 -1.601562 16.546875 -3.03125 C 14.222656 -4.46875 12.285156 -6.316406 10.734375 -8.578125 C 9.179688 -10.847656 8.40625 -13.472656 8.40625 -16.453125 C 9.476562 -17.640625 11.023438 -19.066406 13.046875 -20.734375 C 15.078125 -22.410156 17.101562 -23.992188 19.125 -25.484375 C 21.15625 -26.972656 22.707031 -28.015625 23.78125 -28.609375 C 19.375 -30.992188 15.796875 -34.300781 13.046875 -38.53125 C 10.304688 -42.769531 8.9375 -47.09375 8.9375 -51.5 C 8.9375 -56.269531 10.273438 -60.679688 12.953125 -64.734375 C 15.640625 -68.796875 19.25 -72.109375 23.78125 -74.671875 C 28.3125 -77.234375 33.441406 -78.515625 39.171875 -78.515625 C 42.503906 -78.515625 45.421875 -78.125 47.921875 -77.34375 C 50.429688 -76.570312 52.9375 -75.648438 55.4375 -74.578125 C 55.914062 -74.335938 56.570312 -74.097656 57.40625 -73.859375 C 58.238281 -73.617188 58.957031 -73.441406 59.5625 -73.328125 L 78.6875 -76.015625 C 79.882812 -75.648438 80.484375 -75.050781 80.484375 -74.21875 C 80.484375 -73.5 80.035156 -72.242188 79.140625 -70.453125 C 78.242188 -68.671875 77.316406 -67.484375 76.359375 -66.890625 C 74.929688 -67.003906 73.289062 -67.09375 71.4375 -67.15625 C 69.59375 -67.21875 67.984375 -67.304688 66.609375 -67.421875 C 65.242188 -67.546875 64.5625 -67.609375 64.5625 -67.609375 C 64.082031 -67.609375 63.84375 -67.425781 63.84375 -67.0625 C 64.320312 -66.582031 65.273438 -64.789062 66.703125 -61.6875 C 68.140625 -58.59375 68.859375 -54.960938 68.859375 -50.796875 C 68.859375 -46.617188 67.515625 -42.503906 64.828125 -38.453125 C 62.148438 -34.398438 58.546875 -31.0625 54.015625 -28.4375 C 49.484375 -25.8125 44.351562 -24.5 38.625 -24.5 C 37.082031 -24.5 35.265625 -24.675781 33.171875 -25.03125 C 31.085938 -25.394531 29.566406 -25.753906 28.609375 -26.109375 C 27.066406 -25.273438 25.578125 -24.113281 24.140625 -22.625 C 22.710938 -21.132812 22 -19.671875 22 -18.234375 C 22 -17.398438 22.890625 -16.148438 24.671875 -14.484375 C 26.460938 -12.816406 29.148438 -11.984375 32.734375 -11.984375 L 53.828125 -11.984375 C 58.597656 -11.984375 63.066406 -11.117188 67.234375 -9.390625 C 71.410156 -7.660156 74.835938 -5.363281 77.515625 -2.5 C 80.203125 0.351562 81.546875 3.453125 81.546875 6.796875 C 81.546875 10.492188 80.296875 14.304688 77.796875 18.234375 C 75.296875 22.171875 71.898438 25.804688 67.609375 29.140625 C 63.316406 32.484375 58.367188 35.226562 52.765625 37.375 C 47.160156 39.519531 41.253906 40.59375 35.046875 40.59375 C 30.285156 40.59375 25.519531 39.816406 20.75 38.265625 C 15.976562 36.722656 12.007812 34.3125 8.84375 31.03125 C 5.6875 27.75 4.109375 23.664062 4.109375 18.78125 Z M 18.234375 13.59375 C 18.234375 19.4375 20.320312 24.234375 24.5 27.984375 C 28.675781 31.742188 34.578125 33.625 42.203125 33.625 C 46.378906 33.625 50.523438 32.695312 54.640625 30.84375 C 58.753906 29 62.210938 26.613281 65.015625 23.6875 C 67.816406 20.769531 69.21875 17.703125 69.21875 14.484375 C 69.21875 12.691406 68.441406 10.722656 66.890625 8.578125 C 65.335938 6.429688 62.832031 4.582031 59.375 3.03125 C 55.914062 1.488281 51.328125 0.71875 45.609375 0.71875 C 44.535156 0.71875 42.742188 0.742188 40.234375 0.796875 C 37.734375 0.859375 35.347656 0.945312 33.078125 1.0625 C 30.816406 1.1875 29.445312 1.367188 28.96875 1.609375 C 26.945312 2.796875 24.648438 4.492188 22.078125 6.703125 C 19.515625 8.910156 18.234375 11.207031 18.234375 13.59375 Z M 22.71875 -52.21875 C 22.71875 -48.644531 23.398438 -45.128906 24.765625 -41.671875 C 26.140625 -38.210938 28.109375 -35.378906 30.671875 -33.171875 C 33.234375 -30.960938 36.300781 -29.859375 39.875 -29.859375 C 43.21875 -29.859375 45.988281 -30.875 48.1875 -32.90625 C 50.394531 -34.9375 52.09375 -37.53125 53.28125 -40.6875 C 54.476562 -43.84375 55.078125 -47.03125 55.078125 -50.25 C 55.078125 -53.945312 54.453125 -57.550781 53.203125 -61.0625 C 51.953125 -64.582031 50.101562 -67.472656 47.65625 -69.734375 C 45.21875 -72.003906 42.148438 -73.140625 38.453125 -73.140625 C 35.109375 -73.140625 32.242188 -72.097656 29.859375 -70.015625 C 27.484375 -67.929688 25.695312 -65.304688 24.5 -62.140625 C 23.3125 -58.984375 22.71875 -55.675781 22.71875 -52.21875 Z M 22.71875 -52.21875 "/></g></g></g><g fill="#8e6b69" fill-opacity="1"><g transform="translate(271.811944, 131.679752)"><g><path d="M 6.625 -19.140625 C 6.625 -22.835938 7.632812 -25.96875 9.65625 -28.53125 C 11.6875 -31.09375 13.65625 -32.726562 15.5625 -33.4375 C 18.894531 -34.632812 22.675781 -35.945312 26.90625 -37.375 C 31.144531 -38.8125 35.113281 -40.210938 38.8125 -41.578125 C 42.507812 -42.953125 45.191406 -43.992188 46.859375 -44.703125 C 47.804688 -45.066406 48.398438 -45.515625 48.640625 -46.046875 C 48.878906 -46.585938 49 -47.632812 49 -49.1875 L 49 -54.015625 C 49 -56.753906 48.3125 -59.4375 46.9375 -62.0625 C 45.570312 -64.6875 43.753906 -66.863281 41.484375 -68.59375 C 39.222656 -70.320312 36.601562 -71.1875 33.625 -71.1875 C 30.519531 -71.1875 28.253906 -70.203125 26.828125 -68.234375 C 25.398438 -66.265625 24.382812 -63.550781 23.78125 -60.09375 C 22.832031 -54.363281 20.03125 -51.5 15.375 -51.5 C 13.46875 -51.5 11.976562 -52.300781 10.90625 -53.90625 C 9.832031 -55.519531 9.296875 -57.222656 9.296875 -59.015625 C 9.296875 -59.378906 9.414062 -60.066406 9.65625 -61.078125 C 9.894531 -62.085938 10.191406 -62.832031 10.546875 -63.3125 C 12.453125 -65.101562 15.132812 -67.128906 18.59375 -69.390625 C 22.050781 -71.660156 25.925781 -73.65625 30.21875 -75.375 C 34.507812 -77.101562 38.800781 -77.96875 43.09375 -77.96875 C 46.550781 -77.96875 49.738281 -76.894531 52.65625 -74.75 C 55.582031 -72.601562 57.96875 -69.679688 59.8125 -65.984375 C 61.664062 -62.296875 62.59375 -58.125 62.59375 -53.46875 L 62.59375 -16.625 C 62.59375 -14.25 63.007812 -12.253906 63.84375 -10.640625 C 64.675781 -9.035156 66.109375 -8.234375 68.140625 -8.234375 C 69.804688 -8.234375 71.144531 -8.585938 72.15625 -9.296875 C 73.175781 -10.015625 73.804688 -10.429688 74.046875 -10.546875 C 74.285156 -10.546875 74.460938 -10.367188 74.578125 -10.015625 C 74.691406 -9.660156 74.75 -9.363281 74.75 -9.125 C 74.75 -7.8125 74.453125 -6.675781 73.859375 -5.71875 C 73.148438 -5.125 71.957031 -4.257812 70.28125 -3.125 C 68.613281 -2 66.882812 -1.015625 65.09375 -0.171875 C 63.3125 0.660156 61.765625 1.078125 60.453125 1.078125 C 57.828125 1.078125 55.5 -0.171875 53.46875 -2.671875 C 51.445312 -5.179688 50.140625 -7.804688 49.546875 -10.546875 C 49.066406 -10.078125 47.929688 -9.1875 46.140625 -7.875 C 44.347656 -6.5625 42.316406 -5.1875 40.046875 -3.75 C 37.785156 -2.320312 35.519531 -1.097656 33.25 -0.078125 C 30.988281 0.929688 29.085938 1.4375 27.546875 1.4375 C 21.703125 1.4375 16.753906 -0.53125 12.703125 -4.46875 C 8.648438 -8.40625 6.625 -13.296875 6.625 -19.140625 Z M 21.46875 -20.75 C 21.46875 -17.40625 22.628906 -14.484375 24.953125 -11.984375 C 27.273438 -9.484375 30.101562 -8.234375 33.4375 -8.234375 C 35.582031 -8.234375 37.847656 -8.707031 40.234375 -9.65625 C 42.617188 -10.613281 44.675781 -11.6875 46.40625 -12.875 C 48.132812 -14.070312 49 -14.96875 49 -15.5625 L 49 -39.875 C 46.613281 -39.164062 43.660156 -38.273438 40.140625 -37.203125 C 36.628906 -36.128906 34.039062 -35.296875 32.375 -34.703125 C 29.15625 -33.503906 26.53125 -31.742188 24.5 -29.421875 C 22.476562 -27.097656 21.46875 -24.207031 21.46875 -20.75 Z M 21.46875 -20.75 "/></g></g></g></g></g></svg>